<svg width="48" height="48" fill="none" xmlns="http://www.w3.org/2000/svg"><path d="M36.635 37.934c-5.07 0-8.202-3.681-6.975-10.527 1.195-6.684 4.94-7.685 6.781-7.944 2.552-.355 4.328.356 5.49 2.229l-.064-1.873h2.292L46 37.482h-3.228v-2.648c-1.227 2.1-3.552 3.1-6.136 3.1Zm-.387-4.908c5.199 0 5.425-3.617 5.425-5.2 0-4.907-2.39-5.65-4.553-5.65-1.809 0-4.457 1.614-5.07 6.07-.388 2.875.387 4.78 4.198 4.78ZM2 37.513l10.495-27.448h3.455l10.463 27.448h-5.135l-1.033-4.391H8.265l-1.389 4.391H2Zm7.33-8.621h9.785l-4.941-14.37-4.844 14.37Z" fill="#000"/></svg>