<svg width="48" height="48" fill="none" xmlns="http://www.w3.org/2000/svg"><path d="M32.589 36.934c-1.478 0-2.726-.42-3.745-1.261-.993-.84-1.49-2.05-1.49-3.63 0-1.197.611-2.293 1.834-3.286 1.223-1.019 3.146-1.783 5.77-2.292.407-.077.866-.153 1.375-.23.51-.101 1.044-.203 1.605-.305v-3.02c0-1.732-.217-2.942-.65-3.63-.407-.713-1.057-1.07-1.948-1.07-.612 0-1.096.204-1.452.612-.357.382-.586 1.057-.688 2.025l-.077.42c-.05 1.096-.318 1.898-.802 2.407a2.378 2.378 0 0 1-1.796.765c-.662 0-1.21-.204-1.643-.612-.433-.407-.65-.955-.65-1.643 0-1.044.357-1.923 1.07-2.636.74-.713 1.707-1.248 2.904-1.605 1.198-.357 2.497-.535 3.898-.535 2.267 0 4.012.56 5.234 1.681 1.248 1.096 1.873 2.892 1.873 5.388v8.444c0 1.146.535 1.72 1.604 1.72h.84l.345.305c-.484.611-1.02 1.082-1.605 1.414-.56.33-1.363.496-2.407.496-1.12 0-2.012-.254-2.675-.764-.637-.535-1.057-1.235-1.26-2.101a16.314 16.314 0 0 1-2.37 2.101c-.79.56-1.82.84-3.094.84Zm2.33-2.331c.51 0 .981-.115 1.414-.344.459-.255.993-.637 1.605-1.146v-6.42l-.764.154c-.255.05-.548.102-.88.152-1.17.306-2.113.828-2.827 1.567-.687.713-1.031 1.681-1.031 2.904 0 1.044.242 1.834.726 2.369.484.51 1.07.764 1.757.764ZM2 36.36v-.382l.955-.343c.51-.204.904-.446 1.185-.726.28-.306.51-.726.687-1.261l7.871-22.582h3.248L23.703 33.8c.203.56.433.994.687 1.3.255.28.65.522 1.185.726l.458.152v.383h-9.705v-.383l.573-.19c.535-.204.854-.485.956-.841.127-.382.114-.828-.039-1.338l-1.796-5.502H7.54l-1.834 5.388c-.178.56-.242 1.006-.19 1.337.076.331.381.599.916.803l.84.343v.383H2Zm5.808-9.017h7.985L11.934 15.46 7.808 27.343Z" fill="#000"/></svg>